<svg xmlns="http://www.w3.org/2000/svg" width='20px'
                        height='15px' viewBox='0 0 640 480' version="1.1"><path d="M 253.071 154.414 C 252.426 155.192, 246.595 171.729, 240.114 191.164 L 228.331 226.500 190.416 227 C 169.562 227.275, 151.938 227.864, 151.250 228.309 C 149.270 229.591, 149.793 233.462, 152.250 235.710 C 153.488 236.843, 166.875 246.872, 182 257.997 C 197.125 269.122, 209.860 278.556, 210.299 278.961 C 210.739 279.367, 206.094 295.495, 199.978 314.801 C 193.670 334.714, 188.997 351.115, 189.179 352.702 C 189.874 358.762, 193.416 356.926, 225.750 333.739 L 256 312.046 286.250 333.739 C 318.584 356.926, 322.126 358.762, 322.821 352.702 C 323.003 351.115, 318.330 334.714, 312.022 314.801 C 305.906 295.495, 301.261 279.367, 301.701 278.961 C 302.140 278.556, 314.875 269.122, 330 257.997 C 345.125 246.872, 358.512 236.843, 359.750 235.710 C 362.207 233.462, 362.730 229.591, 360.750 228.309 C 360.063 227.864, 342.438 227.275, 321.584 227 L 283.669 226.500 271.886 191.164 C 265.405 171.729, 259.574 155.192, 258.929 154.414 C 258.283 153.636, 256.965 153, 256 153 C 255.035 153, 253.717 153.636, 253.071 154.414" stroke="none" fill="#fce25c" fill-rule="evenodd"/><path d="M 4.500 89.208 C 3.400 89.839, 1.952 91.062, 1.282 91.927 C -0.495 94.221, -0.495 417.773, 1.282 420.087 C 1.952 420.959, 3.483 422.197, 4.684 422.837 C 7.810 424.501, 504.164 424.518, 507.274 422.853 C 508.453 422.222, 510.208 420.760, 511.175 419.603 C 512.837 417.616, 512.935 408.542, 512.967 254.691 C 512.987 153.505, 512.645 92.102, 512.061 92.462 C 511.545 92.781, 510.758 92.423, 510.311 91.667 C 509.865 90.911, 508.517 89.776, 507.316 89.146 C 504.173 87.497, 7.376 87.558, 4.500 89.208 M 0.488 256 C 0.488 345.925, 0.606 382.712, 0.750 337.750 C 0.894 292.787, 0.894 219.212, 0.750 174.250 C 0.606 129.287, 0.488 166.075, 0.488 256 M 253.071 154.414 C 252.426 155.192, 246.595 171.729, 240.114 191.164 L 228.331 226.500 190.416 227 C 169.562 227.275, 151.938 227.864, 151.250 228.309 C 149.270 229.591, 149.793 233.462, 152.250 235.710 C 153.488 236.843, 166.875 246.872, 182 257.997 C 197.125 269.122, 209.860 278.556, 210.299 278.961 C 210.739 279.367, 206.094 295.495, 199.978 314.801 C 193.670 334.714, 188.997 351.115, 189.179 352.702 C 189.874 358.762, 193.416 356.926, 225.750 333.739 L 256 312.046 286.250 333.739 C 318.584 356.926, 322.126 358.762, 322.821 352.702 C 323.003 351.115, 318.330 334.714, 312.022 314.801 C 305.906 295.495, 301.261 279.367, 301.701 278.961 C 302.140 278.556, 314.875 269.122, 330 257.997 C 345.125 246.872, 358.512 236.843, 359.750 235.710 C 362.207 233.462, 362.730 229.591, 360.750 228.309 C 360.063 227.864, 342.438 227.275, 321.584 227 L 283.669 226.500 271.886 191.164 C 265.405 171.729, 259.574 155.192, 258.929 154.414 C 258.283 153.636, 256.965 153, 256 153 C 255.035 153, 253.717 153.636, 253.071 154.414" stroke="none" fill="#fc4c54" fill-rule="evenodd"/></svg>